<svg width="15" height="145" viewBox="0 0 15 145" fill="none" xmlns="http://www.w3.org/2000/svg">
<path d="M11.1263 101.912L11.1211 103.669L5.49772 107.075L11.111 107.091L11.1058 108.849L2.57457 108.824L2.57976 107.066L8.21487 103.655L2.5899 103.638L2.59507 101.886L11.1263 101.912ZM7.46701 89.0527L7.45704 92.4277L9.74218 92.4344L9.75389 88.4735L11.166 88.4777L11.1491 94.1964L2.61788 94.1712L2.63475 88.4642L4.05857 88.4684L4.0469 92.4176L6.08009 92.4236L6.09007 89.0486L7.46701 89.0527ZM5.60652 78.1972L2.66985 76.5889L2.67583 74.5674L6.89893 77.0643L11.2072 74.5282L11.2012 76.5731L8.20807 78.2049L11.1915 79.8543L11.1854 81.8993L6.89221 79.3377L2.65442 81.8096L2.66039 79.7881L5.60652 78.1972ZM4.13972 61.0147L4.132 63.628L11.2394 63.649L11.2342 65.4068L4.1268 65.3858L4.11918 67.9639L2.69536 67.9597L2.7159 61.0105L4.13972 61.0147Z" fill="white"/>
<path d="M7.78031 0.246767C7.58563 0.0509279 7.26905 0.0499922 7.07321 0.244677L3.88183 3.41724C3.686 3.61192 3.68506 3.9285 3.87974 4.12434C4.07443 4.32018 4.39101 4.32112 4.58685 4.12643L7.42362 1.30638L10.2437 4.14315C10.4384 4.33899 10.7549 4.33993 10.9508 4.14524C11.1466 3.95056 11.1476 3.63398 10.9529 3.43814L7.78031 0.246767ZM7.77496 51.6005L7.92571 0.600752L6.92572 0.597796L6.77497 51.5976L7.77496 51.6005Z" fill="white"/>
<path d="M6.50156 144.097L6.5725 120.097" stroke="white"/>
</svg>
