<svg width="15" height="139" viewBox="0 0 15 139" fill="none" xmlns="http://www.w3.org/2000/svg">
<path d="M8.4658 81.0342L11.4717 81.03L11.4741 82.7878L2.94289 82.7998L2.9382 79.4717C2.9373 78.8311 3.0537 78.2684 3.28739 77.7837C3.52108 77.2951 3.85453 76.9196 4.28776 76.6573C4.71707 76.395 5.20712 76.2634 5.7579 76.2627C6.59384 76.2615 7.2544 76.5477 7.73959 77.1212C8.22086 77.6908 8.46221 78.4815 8.46363 79.4932L8.4658 81.0342ZM7.04198 81.0362L7.03976 79.4659C7.03911 79.0011 6.92924 78.6477 6.71014 78.4058C6.49105 78.1601 6.17837 78.0375 5.77212 78.038C5.35416 78.0386 5.01644 78.1621 4.75897 78.4086C4.50151 78.6551 4.36918 78.9951 4.36197 79.4287L4.36424 81.04L7.04198 81.0362ZM8.32702 65.7079L8.32899 67.1083L11.452 67.1039L11.4545 68.8617L2.92327 68.8737L2.91881 65.7038C2.91739 64.696 3.1409 63.9184 3.58935 63.3709C4.0378 62.8233 4.67218 62.549 5.49249 62.5479C6.07452 62.547 6.56102 62.6733 6.95201 62.9267C7.33908 63.1761 7.64821 63.5565 7.8794 64.0679L11.3631 62.2173L11.4452 62.2172L11.4478 64.1039L8.32702 65.7079ZM6.90517 67.1103L6.90317 65.6924C6.90255 65.251 6.79074 64.9093 6.56774 64.6674C6.34084 64.4256 6.03012 64.3049 5.63559 64.3055C5.23324 64.306 4.917 64.4217 4.68686 64.6525C4.45671 64.8794 4.34197 65.2292 4.34263 65.7018L4.34462 67.1139L6.90517 67.1103ZM7.73051 49.8901L7.73527 53.2651L10.0204 53.2619L10.0148 49.3009L11.4269 49.2989L11.435 55.0177L2.90377 55.0297L2.89573 49.3227L4.31955 49.3207L4.32512 53.2699L6.35832 53.267L6.35356 49.892L7.73051 49.8901ZM9.29712 38.9383L2.87838 37.0138L2.87562 35.0568L11.4111 38.0154L11.4136 39.8494L2.88656 42.8204L2.88381 40.8692L9.29712 38.9383Z" fill="white"/>
<path d="M7.19826 137.909C7.3938 138.104 7.71038 138.104 7.90537 137.908L11.0829 134.722C11.2779 134.526 11.2774 134.21 11.0819 134.015C10.8863 133.82 10.5697 133.82 10.3748 134.016L7.55032 136.848L4.71791 134.024C4.52238 133.829 4.20579 133.829 4.01081 134.025C3.81582 134.22 3.81627 134.537 4.0118 134.732L7.19826 137.909ZM6.98792 92.5559L7.05132 137.556L8.05132 137.554L7.98791 92.5544L6.98792 92.5559Z" fill="white"/>
<path d="M7.39209 24.5552L7.35827 0.555246" stroke="white"/>
</svg>
